<svg width="80" height="80" viewBox="0 0 80 80" fill="none" xmlns="http://www.w3.org/2000/svg">
<g id="Play Icon">
<g id="Vector" filter="url(#filter0_f_3441_3982)">
<path d="M39.9796 20.83C36.1922 20.83 32.4898 21.9531 29.3407 24.0572C26.1916 26.1614 23.7371 29.1522 22.2878 32.6513C20.8384 36.1504 20.4592 40.0007 21.198 43.7154C21.9369 47.43 23.7607 50.8422 26.4389 53.5203C29.117 56.1984 32.5291 58.0222 36.2437 58.7611C39.9584 59.5 43.8087 59.1208 47.3078 57.6714C50.807 56.222 53.7977 53.7675 55.9019 50.6184C58.0061 47.4693 59.1292 43.7669 59.1292 39.9795C59.1292 37.4647 58.6339 34.9746 57.6715 32.6513C56.7091 30.328 55.2986 28.2169 53.5204 26.4387C51.7422 24.6605 49.6312 23.25 47.3078 22.2876C44.9845 21.3253 42.4944 20.83 39.9796 20.83ZM36.1497 48.5968V31.3622L47.6395 39.9795L36.1497 48.5968Z" fill="#FF4B78"/>
</g>
<circle id="Ellipse 307" cx="38" cy="40" r="13" fill="#FDFCFF"/>
<g id="Vector_2" filter="url(#filter1_d_3441_3982)">
<path d="M39.9796 20.83C36.1922 20.83 32.4898 21.9531 29.3407 24.0572C26.1916 26.1614 23.7371 29.1522 22.2878 32.6513C20.8384 36.1504 20.4592 40.0007 21.198 43.7154C21.9369 47.43 23.7607 50.8422 26.4389 53.5203C29.117 56.1984 32.5291 58.0222 36.2437 58.7611C39.9584 59.5 43.8087 59.1208 47.3078 57.6714C50.807 56.222 53.7977 53.7675 55.9019 50.6184C58.0061 47.4693 59.1292 43.7669 59.1292 39.9795C59.1292 37.4647 58.6339 34.9746 57.6715 32.6513C56.7091 30.328 55.2986 28.2169 53.5204 26.4387C51.7422 24.6605 49.6312 23.25 47.3078 22.2876C44.9845 21.3253 42.4944 20.83 39.9796 20.83ZM36.1497 48.5968V31.3622L47.6395 39.9795L36.1497 48.5968Z" fill="#FF4B78"/>
</g>
</g>
<defs>
<filter id="filter0_f_3441_3982" x="0.830078" y="0.829956" width="78.2988" height="78.2991" filterUnits="userSpaceOnUse" color-interpolation-filters="sRGB">
<feFlood flood-opacity="0" result="BackgroundImageFix"/>
<feBlend mode="normal" in="SourceGraphic" in2="BackgroundImageFix" result="shape"/>
<feGaussianBlur stdDeviation="10" result="effect1_foregroundBlur_3441_3982"/>
</filter>
<filter id="filter1_d_3441_3982" x="16.8301" y="20.83" width="46.2988" height="46.2991" filterUnits="userSpaceOnUse" color-interpolation-filters="sRGB">
<feFlood flood-opacity="0" result="BackgroundImageFix"/>
<feColorMatrix in="SourceAlpha" type="matrix" values="0 0 0 0 0 0 0 0 0 0 0 0 0 0 0 0 0 0 127 0" result="hardAlpha"/>
<feOffset dy="4"/>
<feGaussianBlur stdDeviation="2"/>
<feComposite in2="hardAlpha" operator="out"/>
<feColorMatrix type="matrix" values="0 0 0 0 0 0 0 0 0 0 0 0 0 0 0 0 0 0 0.25 0"/>
<feBlend mode="normal" in2="BackgroundImageFix" result="effect1_dropShadow_3441_3982"/>
<feBlend mode="normal" in="SourceGraphic" in2="effect1_dropShadow_3441_3982" result="shape"/>
</filter>
</defs>
</svg>
