<svg width="272" height="268" viewBox="0 0 272 268" fill="none" xmlns="http://www.w3.org/2000/svg">
<g filter="url(#filter0_f_1_3367)">
<path d="M113.127 181.055L142.48 126.528L185.183 117.349L113.127 181.055Z" fill="url(#paint0_linear_1_3367)"/>
<path d="M113.127 181.054L86.581 87.1601L142.48 126.528L113.127 181.054Z" fill="url(#paint1_linear_1_3367)"/>
<path d="M185.184 117.347L86.5812 87.1592L142.48 126.527L185.184 117.347Z" fill="url(#paint2_linear_1_3367)"/>
<path opacity="0.5" fill-rule="evenodd" clip-rule="evenodd" d="M113.127 181.055L142.48 126.528L185.183 117.349L113.127 181.055Z" fill="url(#paint3_linear_1_3367)"/>
</g>
<path d="M113.127 181.055L142.48 126.528L185.183 117.349L113.127 181.055Z" fill="url(#paint4_linear_1_3367)"/>
<path d="M113.127 181.054L86.581 87.1601L142.48 126.528L113.127 181.054Z" fill="url(#paint5_linear_1_3367)"/>
<path d="M185.184 117.347L86.5812 87.1592L142.48 126.527L185.184 117.347Z" fill="url(#paint6_linear_1_3367)"/>
<path opacity="0.5" fill-rule="evenodd" clip-rule="evenodd" d="M113.127 181.055L142.48 126.528L185.183 117.349L113.127 181.055Z" fill="url(#paint7_linear_1_3367)"/>
<defs>
<filter id="filter0_f_1_3367" x="0.0911636" y="0.669472" width="271.582" height="266.875" filterUnits="userSpaceOnUse" color-interpolation-filters="sRGB">
<feFlood flood-opacity="0" result="BackgroundImageFix"/>
<feBlend mode="normal" in="SourceGraphic" in2="BackgroundImageFix" result="shape"/>
<feGaussianBlur stdDeviation="43.2449" result="effect1_foregroundBlur_1_3367"/>
</filter>
<linearGradient id="paint0_linear_1_3367" x1="106.966" y1="160.46" x2="190.607" y2="135.363" gradientUnits="userSpaceOnUse">
<stop stop-color="#F614CE"/>
<stop offset="0.54" stop-color="#772CF6"/>
<stop offset="1" stop-color="#37A8FE"/>
</linearGradient>
<linearGradient id="paint1_linear_1_3367" x1="99.1291" y1="134.343" x2="141.067" y2="121.759" gradientUnits="userSpaceOnUse">
<stop stop-color="#F614CE"/>
<stop offset="0.54" stop-color="#772CF6"/>
<stop offset="1" stop-color="#37A8FE"/>
</linearGradient>
<linearGradient id="paint2_linear_1_3367" x1="171.809" y1="133.543" x2="98.5903" y2="72.7718" gradientUnits="userSpaceOnUse">
<stop stop-color="#C515C7"/>
<stop offset="1" stop-color="#FBBFE8"/>
</linearGradient>
<linearGradient id="paint3_linear_1_3367" x1="159.6" y1="156.353" x2="133.951" y2="139.53" gradientUnits="userSpaceOnUse">
<stop stop-color="#450696"/>
<stop offset="0.99"/>
</linearGradient>
<linearGradient id="paint4_linear_1_3367" x1="106.966" y1="160.46" x2="190.607" y2="135.363" gradientUnits="userSpaceOnUse">
<stop stop-color="#F614CE"/>
<stop offset="0.54" stop-color="#772CF6"/>
<stop offset="1" stop-color="#37A8FE"/>
</linearGradient>
<linearGradient id="paint5_linear_1_3367" x1="99.1291" y1="134.343" x2="141.067" y2="121.759" gradientUnits="userSpaceOnUse">
<stop stop-color="#F614CE"/>
<stop offset="0.54" stop-color="#772CF6"/>
<stop offset="1" stop-color="#37A8FE"/>
</linearGradient>
<linearGradient id="paint6_linear_1_3367" x1="171.809" y1="133.543" x2="98.5903" y2="72.7718" gradientUnits="userSpaceOnUse">
<stop stop-color="#C515C7"/>
<stop offset="1" stop-color="#FBBFE8"/>
</linearGradient>
<linearGradient id="paint7_linear_1_3367" x1="159.6" y1="156.353" x2="133.951" y2="139.53" gradientUnits="userSpaceOnUse">
<stop stop-color="#450696"/>
<stop offset="0.99"/>
</linearGradient>
</defs>
</svg>
